<svg width="25" height="26" viewBox="0 0 25 26" fill="none" xmlns="http://www.w3.org/2000/svg">
<path d="M12.5 14.5625C16.3819 14.5625 19.5313 11.4131 19.5313 7.53125C19.5313 3.64941 16.3819 0.5 12.5 0.5C8.61819 0.5 5.46878 3.64941 5.46878 7.53125C5.46878 11.4131 8.61819 14.5625 12.5 14.5625ZM18.75 16.125H16.0596C14.9756 16.623 13.7696 16.9062 12.5 16.9062C11.2305 16.9062 10.0293 16.623 8.94046 16.125H6.25003C2.79788 16.125 3.05176e-05 18.9229 3.05176e-05 22.375V23.1562C3.05176e-05 24.4502 1.04984 25.5 2.34378 25.5H22.6563C23.9502 25.5 25 24.4502 25 23.1562V22.375C25 18.9229 22.2022 16.125 18.75 16.125Z" fill="white"/>
</svg>
