<svg width="25" height="22" viewBox="0 0 25 22" fill="none" xmlns="http://www.w3.org/2000/svg">
<path d="M12.1685 5.73624L4.167 13.1533V21.1585C4.167 21.3658 4.24015 21.5645 4.37038 21.7111C4.5006 21.8577 4.67722 21.94 4.86139 21.94L9.72473 21.9258C9.90829 21.9248 10.084 21.842 10.2135 21.6956C10.343 21.5491 10.4156 21.3509 10.4156 21.1443V16.4694C10.4156 16.2621 10.4888 16.0633 10.619 15.9168C10.7493 15.7702 10.9259 15.6879 11.11 15.6879H13.8876C14.0718 15.6879 14.2484 15.7702 14.3786 15.9168C14.5088 16.0633 14.582 16.2621 14.582 16.4694V21.1409C14.5817 21.2437 14.5995 21.3456 14.6342 21.4407C14.669 21.5358 14.7201 21.6223 14.7846 21.6951C14.8491 21.7679 14.9258 21.8257 15.0101 21.8651C15.0945 21.9046 15.185 21.9249 15.2764 21.9249L20.138 21.94C20.3222 21.94 20.4988 21.8577 20.629 21.7111C20.7592 21.5645 20.8324 21.3658 20.8324 21.1585V13.1479L12.8326 5.73624C12.7385 5.65092 12.6214 5.6044 12.5006 5.6044C12.3798 5.6044 12.2626 5.65092 12.1685 5.73624ZM24.8078 10.7775L21.1796 7.41162V0.646134C21.1796 0.490681 21.1247 0.341595 21.027 0.231673C20.9294 0.121751 20.7969 0.0599976 20.6588 0.0599976H18.2284C18.0903 0.0599976 17.9578 0.121751 17.8602 0.231673C17.7625 0.341595 17.7076 0.490681 17.7076 0.646134V4.19275L13.8221 0.594847C13.4492 0.249505 12.9813 0.0606879 12.4984 0.0606879C12.0155 0.0606879 11.5476 0.249505 11.1747 0.594847L0.189004 10.7775C0.136268 10.8266 0.0926378 10.8868 0.0606055 10.9549C0.0285733 11.0229 0.00876702 11.0974 0.00231846 11.1741C-0.00413009 11.2507 0.00290545 11.3281 0.0230231 11.4016C0.0431407 11.4752 0.0759461 11.5437 0.119565 11.603L1.22625 13.1172C1.26975 13.1767 1.32326 13.226 1.3837 13.2622C1.44415 13.2984 1.51035 13.3209 1.57852 13.3283C1.64669 13.3357 1.71548 13.3279 1.78096 13.3053C1.84645 13.2828 1.90733 13.2459 1.96013 13.1968L12.1685 3.73361C12.2626 3.64829 12.3798 3.60176 12.5006 3.60176C12.6214 3.60176 12.7385 3.64829 12.8326 3.73361L23.0414 13.1968C23.0941 13.2459 23.1549 13.2828 23.2203 13.3054C23.2857 13.3281 23.3544 13.336 23.4225 13.3287C23.4906 13.3215 23.5568 13.2992 23.6173 13.2631C23.6777 13.2271 23.7313 13.178 23.7749 13.1186L24.8815 11.6044C24.9251 11.5448 24.9578 11.476 24.9777 11.4021C24.9975 11.3282 25.0043 11.2506 24.9974 11.1737C24.9905 11.0969 24.9703 11.0223 24.9377 10.9543C24.9052 10.8863 24.861 10.8262 24.8078 10.7775Z" fill="black"/>
</svg>
