<svg width="26" height="18" viewBox="0 0 26 18" fill="none" xmlns="http://www.w3.org/2000/svg">
<path d="M5.93054 4.83332H19.8194V13.1667H5.93054V4.83332ZM23.2917 8.99999C23.2917 10.1506 24.2244 11.0833 25.375 11.0833V15.25C25.375 16.4006 24.4423 17.3333 23.2917 17.3333H2.45832C1.30771 17.3333 0.374985 16.4006 0.374985 15.25V11.0833C1.52559 11.0833 2.45832 10.1506 2.45832 8.99999C2.45832 7.84938 1.52559 6.91666 0.374985 6.91666V2.74999C0.374985 1.59938 1.30771 0.666656 2.45832 0.666656H23.2917C24.4423 0.666656 25.375 1.59938 25.375 2.74999V6.91666C24.2244 6.91666 23.2917 7.84938 23.2917 8.99999ZM21.2083 4.4861C21.2083 3.9108 20.742 3.44443 20.1667 3.44443H5.58332C5.00801 3.44443 4.54165 3.9108 4.54165 4.4861V13.5139C4.54165 14.0892 5.00801 14.5555 5.58332 14.5555H20.1667C20.742 14.5555 21.2083 14.0892 21.2083 13.5139V4.4861Z" fill="white"/>
</svg>
