<svg width="23" height="26" viewBox="0 0 23 26" fill="none" xmlns="http://www.w3.org/2000/svg">
<path d="M11.6875 25.5C13.4121 25.5 14.811 24.1011 14.811 22.375H8.56397C8.56397 24.1011 9.96289 25.5 11.6875 25.5ZM22.2046 18.1899C21.2612 17.1763 19.4961 15.6514 19.4961 10.6562C19.4961 6.8623 16.8359 3.8252 13.249 3.08008V2.0625C13.249 1.19971 12.5498 0.5 11.6875 0.5C10.8252 0.5 10.126 1.19971 10.126 2.0625V3.08008C6.53907 3.8252 3.87891 6.8623 3.87891 10.6562C3.87891 15.6514 2.11377 17.1763 1.17041 18.1899C0.877445 18.5049 0.747562 18.8813 0.750003 19.25C0.755374 20.0508 1.38379 20.8125 2.31739 20.8125H21.0576C21.9912 20.8125 22.6201 20.0508 22.625 19.25C22.6274 18.8813 22.4976 18.5044 22.2046 18.1899Z" fill="white"/>
</svg>
